<mxfile host="65bd71144e">
    <diagram id="JQPWEEREG0nAAQ0EoCUF" name="Page-1">
        <mxGraphModel dx="1007" dy="1904" grid="1" gridSize="10" guides="1" tooltips="1" connect="1" arrows="1" fold="1" page="1" pageScale="1" pageWidth="850" pageHeight="1100" background="#ffffff" math="0" shadow="0">
            <root>
                <mxCell id="0"/>
                <mxCell id="1" parent="0"/>
                <mxCell id="2" value="&lt;font style=&quot;font-size: 18px;&quot; color=&quot;#000000&quot;&gt;&lt;b&gt;Visiteur&lt;/b&gt;&lt;/font&gt;" style="shape=umlActor;verticalLabelPosition=bottom;verticalAlign=top;html=1;fillColor=#1ba1e2;strokeColor=#006EAF;fontColor=#ffffff;" parent="1" vertex="1">
                    <mxGeometry x="50" y="60" width="70" height="90" as="geometry"/>
                </mxCell>
                <mxCell id="3" value="&lt;font style=&quot;font-size: 18px;&quot; color=&quot;#000000&quot;&gt;&lt;b&gt;Enseignant&lt;/b&gt;&lt;/font&gt;" style="shape=umlActor;verticalLabelPosition=bottom;verticalAlign=top;html=1;strokeColor=#B09500;fillColor=#e3c800;fontColor=#000000;" parent="1" vertex="1">
                    <mxGeometry x="50" y="780" width="70" height="90" as="geometry"/>
                </mxCell>
                <mxCell id="4" value="&lt;font style=&quot;font-size: 18px;&quot; color=&quot;#000000&quot;&gt;&lt;b style=&quot;&quot;&gt;Etudiant&lt;/b&gt;&lt;/font&gt;" style="shape=umlActor;verticalLabelPosition=bottom;verticalAlign=top;html=1;fillColor=#647687;strokeColor=#314354;fontColor=#ffffff;" parent="1" vertex="1">
                    <mxGeometry x="50" y="490" width="70" height="90" as="geometry"/>
                </mxCell>
                <mxCell id="5" value="&lt;font color=&quot;#000000&quot;&gt;Admin&lt;/font&gt;" style="shape=umlActor;verticalLabelPosition=bottom;verticalAlign=top;html=1;fillColor=#e51400;strokeColor=#B20000;fontColor=#ffffff;" parent="1" vertex="1">
                    <mxGeometry x="50" y="1215" width="70" height="90" as="geometry"/>
                </mxCell>
                <mxCell id="6" value="" style="whiteSpace=wrap;html=1;aspect=fixed;fillColor=#FFFFFF;strokeColor=#000000;fontStyle=1" parent="1" vertex="1">
                    <mxGeometry x="190" y="-90" width="2090" height="2090" as="geometry"/>
                </mxCell>
                <mxCell id="7" value="&lt;font color=&quot;#000000&quot;&gt;Créer un compte&lt;/font&gt;" style="ellipse;whiteSpace=wrap;html=1;fillColor=#FFFFFF;strokeColor=#000000;" parent="1" vertex="1">
                    <mxGeometry x="610" y="-60" width="140" height="40" as="geometry"/>
                </mxCell>
                <mxCell id="8" value="&lt;font color=&quot;#000000&quot;&gt;Consulter le cours&amp;nbsp;&lt;/font&gt;" style="ellipse;whiteSpace=wrap;html=1;fillColor=#FFFFFF;strokeColor=#000000;" parent="1" vertex="1">
                    <mxGeometry x="610" y="50" width="140" height="40" as="geometry"/>
                </mxCell>
                <mxCell id="9" value="&lt;font color=&quot;#000000&quot;&gt;Rechercher par mots-clés&lt;/font&gt;" style="ellipse;whiteSpace=wrap;html=1;fillColor=#FFFFFF;strokeColor=#000000;" parent="1" vertex="1">
                    <mxGeometry x="600" y="140" width="150" height="40" as="geometry"/>
                </mxCell>
                <mxCell id="13" value="" style="endArrow=none;html=1;rounded=0;entryX=0;entryY=0.5;entryDx=0;entryDy=0;strokeColor=#000000;exitX=0.5;exitY=0.5;exitDx=0;exitDy=0;exitPerimeter=0;" parent="1" source="2" target="7" edge="1">
                    <mxGeometry width="50" height="50" relative="1" as="geometry">
                        <mxPoint x="220" y="90" as="sourcePoint"/>
                        <mxPoint x="420" y="170" as="targetPoint"/>
                    </mxGeometry>
                </mxCell>
                <mxCell id="14" value="" style="endArrow=none;html=1;rounded=0;entryX=0;entryY=0.5;entryDx=0;entryDy=0;strokeColor=#000000;exitX=0.5;exitY=0.5;exitDx=0;exitDy=0;exitPerimeter=0;" parent="1" source="2" target="8" edge="1">
                    <mxGeometry width="50" height="50" relative="1" as="geometry">
                        <mxPoint x="220" y="90" as="sourcePoint"/>
                        <mxPoint x="330" y="170" as="targetPoint"/>
                    </mxGeometry>
                </mxCell>
                <mxCell id="15" value="" style="endArrow=none;html=1;rounded=0;entryX=0.048;entryY=0.301;entryDx=0;entryDy=0;entryPerimeter=0;strokeColor=#000000;exitX=0.5;exitY=0.5;exitDx=0;exitDy=0;exitPerimeter=0;" parent="1" source="2" target="9" edge="1">
                    <mxGeometry width="50" height="50" relative="1" as="geometry">
                        <mxPoint x="220" y="90" as="sourcePoint"/>
                        <mxPoint x="350" y="180" as="targetPoint"/>
                    </mxGeometry>
                </mxCell>
                <mxCell id="17" value="&lt;font color=&quot;#000000&quot;&gt;Consulter detail de cours&lt;/font&gt;" style="ellipse;whiteSpace=wrap;html=1;fillColor=#FFFFFF;strokeColor=#000000;" parent="1" vertex="1">
                    <mxGeometry x="470" y="400" width="140" height="40" as="geometry"/>
                </mxCell>
                <mxCell id="18" value="&lt;font color=&quot;#000000&quot;&gt;S'inscrire à un cours&lt;/font&gt;" style="ellipse;whiteSpace=wrap;html=1;fillColor=#FFFFFF;strokeColor=#000000;" parent="1" vertex="1">
                    <mxGeometry x="470" y="460" width="140" height="40" as="geometry"/>
                </mxCell>
                <mxCell id="19" value="&lt;font color=&quot;#000000&quot;&gt;Acces Panier de cours&lt;/font&gt;" style="ellipse;whiteSpace=wrap;html=1;fillColor=#FFFFFF;strokeColor=#000000;" parent="1" vertex="1">
                    <mxGeometry x="480" y="515" width="140" height="40" as="geometry"/>
                </mxCell>
                <mxCell id="20" value="&lt;font color=&quot;#000000&quot;&gt;Gestion de cours&lt;/font&gt;" style="ellipse;whiteSpace=wrap;html=1;fillColor=#99FFCC;strokeColor=#000000;" parent="1" vertex="1">
                    <mxGeometry x="630" y="700" width="120" height="40" as="geometry"/>
                </mxCell>
                <mxCell id="21" value="&lt;font color=&quot;#000000&quot;&gt;Ajouter un cours&amp;nbsp;&lt;/font&gt;" style="ellipse;whiteSpace=wrap;html=1;fillColor=#FFFFFF;strokeColor=#000000;" parent="1" vertex="1">
                    <mxGeometry x="425" y="840" width="120" height="40" as="geometry"/>
                </mxCell>
                <mxCell id="22" value="&lt;font color=&quot;#000000&quot;&gt;Modifier&lt;/font&gt;" style="ellipse;whiteSpace=wrap;html=1;fillColor=#FFFFFF;strokeColor=#000000;" parent="1" vertex="1">
                    <mxGeometry x="840" y="840" width="120" height="40" as="geometry"/>
                </mxCell>
                <mxCell id="23" value="&lt;font color=&quot;#000000&quot;&gt;Supprimer&lt;/font&gt;" style="ellipse;whiteSpace=wrap;html=1;fillColor=#FFFFFF;strokeColor=#000000;" parent="1" vertex="1">
                    <mxGeometry x="990" y="840" width="120" height="40" as="geometry"/>
                </mxCell>
                <mxCell id="24" value="&lt;font color=&quot;#000000&quot;&gt;Consulter&amp;nbsp; Inscription&lt;/font&gt;" style="ellipse;whiteSpace=wrap;html=1;fillColor=#FFFFFF;strokeColor=#000000;" parent="1" vertex="1">
                    <mxGeometry x="700" y="840" width="120" height="40" as="geometry"/>
                </mxCell>
                <mxCell id="31" value="&lt;font color=&quot;#000000&quot;&gt;Gestion Compte Enseignat&amp;nbsp;&lt;/font&gt;" style="ellipse;whiteSpace=wrap;html=1;strokeColor=#000000;fillColor=#66FFB3;" parent="1" vertex="1">
                    <mxGeometry x="425" y="1090" width="120" height="40" as="geometry"/>
                </mxCell>
                <mxCell id="32" value="&lt;span style=&quot;font-family: &amp;quot;Nunito Sans&amp;quot;, sans-serif; font-size: 14px; text-align: left; background-color: rgb(255, 255, 255);&quot;&gt;&lt;font color=&quot;#000000&quot;&gt;Gestion des contenus&lt;/font&gt;&lt;/span&gt;" style="ellipse;whiteSpace=wrap;html=1;strokeColor=#000000;fillColor=#66FFB3;" parent="1" vertex="1">
                    <mxGeometry x="250" y="1290" width="150" height="40" as="geometry"/>
                </mxCell>
                <mxCell id="33" value="&lt;span style=&quot;font-family: &amp;quot;Nunito Sans&amp;quot;, sans-serif; font-size: 14px; text-align: left; background-color: rgb(255, 255, 255);&quot;&gt;&lt;font color=&quot;#000000&quot;&gt;afficher Cours&lt;/font&gt;&lt;/span&gt;" style="ellipse;whiteSpace=wrap;html=1;strokeColor=#000000;fillColor=#FFFFFF;" parent="1" vertex="1">
                    <mxGeometry x="1000" y="1150" width="120" height="40" as="geometry"/>
                </mxCell>
                <mxCell id="34" value="&lt;span style=&quot;font-family: &amp;quot;Nunito Sans&amp;quot;, sans-serif; font-size: 14px; text-align: left; background-color: rgb(255, 255, 255);&quot;&gt;&lt;font color=&quot;#000000&quot;&gt;&amp;nbsp;catégories&amp;nbsp;&lt;/font&gt;&lt;/span&gt;" style="ellipse;whiteSpace=wrap;html=1;strokeColor=#000000;fillColor=#FFFFFF;" parent="1" vertex="1">
                    <mxGeometry x="890" y="1390" width="150" height="60" as="geometry"/>
                </mxCell>
                <mxCell id="35" value="&lt;span style=&quot;font-family: &amp;quot;Nunito Sans&amp;quot;, sans-serif; font-size: 14px; text-align: left; background-color: rgb(255, 255, 255);&quot;&gt;&lt;font color=&quot;#000000&quot;&gt;Tags&lt;/font&gt;&lt;/span&gt;" style="ellipse;whiteSpace=wrap;html=1;strokeColor=#000000;fillColor=#FFFFFF;" parent="1" vertex="1">
                    <mxGeometry x="470" y="1460" width="120" height="40" as="geometry"/>
                </mxCell>
                <mxCell id="36" value="&lt;div style=&quot;text-align: left;&quot;&gt;&lt;span style=&quot;color: light-dark(rgb(0, 0, 0), rgb(255, 255, 255)); font-size: 14px; background-color: rgb(255, 255, 255);&quot;&gt;&lt;font face=&quot;Nunito Sans, sans-serif&quot;&gt;Afficher les statistique&lt;/font&gt;&lt;/span&gt;&lt;/div&gt;" style="ellipse;whiteSpace=wrap;html=1;strokeColor=#000000;fillColor=#FFFFFF;" parent="1" vertex="1">
                    <mxGeometry x="260" y="1750" width="200" height="40" as="geometry"/>
                </mxCell>
                <mxCell id="37" value="&lt;span style=&quot;font-family: &amp;quot;Nunito Sans&amp;quot;, sans-serif; font-size: 14px; text-align: left; background-color: rgb(255, 255, 255);&quot;&gt;&lt;font color=&quot;#000000&quot;&gt;Nombre total de cours&lt;/font&gt;&lt;/span&gt;" style="ellipse;whiteSpace=wrap;html=1;strokeColor=#000000;fillColor=#FFFFFF;" parent="1" vertex="1">
                    <mxGeometry x="980" y="1940" width="150" height="40" as="geometry"/>
                </mxCell>
                <mxCell id="38" value="&lt;span style=&quot;font-family: &amp;quot;Nunito Sans&amp;quot;, sans-serif; font-size: 14px; text-align: left; background-color: rgb(255, 255, 255);&quot;&gt;&lt;font color=&quot;#000000&quot;&gt;&amp;nbsp;répartition par catégorie&lt;/font&gt;&lt;/span&gt;" style="ellipse;whiteSpace=wrap;html=1;strokeColor=#000000;fillColor=#FFFFFF;" parent="1" vertex="1">
                    <mxGeometry x="490" y="1940" width="180" height="40" as="geometry"/>
                </mxCell>
                <mxCell id="39" value="&lt;span style=&quot;font-family: &amp;quot;Nunito Sans&amp;quot;, sans-serif; font-size: 14px; text-align: left; background-color: rgb(255, 255, 255);&quot;&gt;&lt;font color=&quot;#000000&quot;&gt;&amp;nbsp;cour avec le plus d' étudiants,&lt;/font&gt;&lt;/span&gt;" style="ellipse;whiteSpace=wrap;html=1;strokeColor=#000000;fillColor=#FFFFFF;" parent="1" vertex="1">
                    <mxGeometry x="700" y="1940" width="200" height="40" as="geometry"/>
                </mxCell>
                <mxCell id="40" value="&lt;span style=&quot;font-family: &amp;quot;Nunito Sans&amp;quot;, sans-serif; font-size: 14px; text-align: left; background-color: rgb(255, 255, 255);&quot;&gt;&lt;font color=&quot;#000000&quot;&gt;Top 3 enseignants&lt;/font&gt;&lt;/span&gt;" style="ellipse;whiteSpace=wrap;html=1;strokeColor=#000000;fillColor=#FFFFFF;" parent="1" vertex="1">
                    <mxGeometry x="250" y="1940" width="200" height="40" as="geometry"/>
                </mxCell>
                <mxCell id="41" value="&lt;div style=&quot;text-align: left;&quot;&gt;&lt;font color=&quot;#000000&quot; face=&quot;Nunito Sans, sans-serif&quot;&gt;&lt;span style=&quot;font-size: 14px; background-color: rgb(255, 255, 255);&quot;&gt;Supprimer Cours&lt;/span&gt;&lt;/font&gt;&lt;/div&gt;" style="ellipse;whiteSpace=wrap;html=1;strokeColor=#000000;fillColor=#FFFFFF;" parent="1" vertex="1">
                    <mxGeometry x="1205" y="1150" width="140" height="40" as="geometry"/>
                </mxCell>
                <mxCell id="42" value="" style="endArrow=none;html=1;rounded=0;entryX=0;entryY=0.5;entryDx=0;entryDy=0;strokeColor=#000000;exitX=0.5;exitY=0.5;exitDx=0;exitDy=0;exitPerimeter=0;" parent="1" source="5" target="31" edge="1">
                    <mxGeometry width="50" height="50" relative="1" as="geometry">
                        <mxPoint x="190" y="1270" as="sourcePoint"/>
                        <mxPoint x="260" y="1220" as="targetPoint"/>
                        <Array as="points"/>
                    </mxGeometry>
                </mxCell>
                <mxCell id="43" value="" style="endArrow=none;html=1;rounded=0;entryX=0.034;entryY=0.391;entryDx=0;entryDy=0;entryPerimeter=0;strokeColor=#000000;exitX=0.5;exitY=0.5;exitDx=0;exitDy=0;exitPerimeter=0;" parent="1" source="5" target="32" edge="1">
                    <mxGeometry width="50" height="50" relative="1" as="geometry">
                        <mxPoint x="190" y="1270" as="sourcePoint"/>
                        <mxPoint x="270" y="1220" as="targetPoint"/>
                    </mxGeometry>
                </mxCell>
                <mxCell id="44" value="" style="endArrow=none;html=1;rounded=0;entryX=0.5;entryY=0;entryDx=0;entryDy=0;strokeColor=#000000;exitX=0.5;exitY=0.5;exitDx=0;exitDy=0;exitPerimeter=0;" parent="1" source="5" target="36" edge="1">
                    <mxGeometry width="50" height="50" relative="1" as="geometry">
                        <mxPoint x="190" y="1270" as="sourcePoint"/>
                        <mxPoint x="265" y="1316" as="targetPoint"/>
                        <Array as="points"/>
                    </mxGeometry>
                </mxCell>
                <mxCell id="45" value="&lt;font style=&quot;background-color: rgb(255, 255, 255);&quot; color=&quot;#000000&quot;&gt;&amp;lt;&amp;lt;extend&amp;gt;&amp;gt;&lt;/font&gt;" style="endArrow=open;endSize=12;dashed=1;html=1;rounded=0;entryX=0.027;entryY=0.669;entryDx=0;entryDy=0;entryPerimeter=0;strokeColor=#000000;" parent="1" source="36" target="37" edge="1">
                    <mxGeometry width="160" relative="1" as="geometry">
                        <mxPoint x="380" y="1750" as="sourcePoint"/>
                        <mxPoint x="540" y="1750" as="targetPoint"/>
                    </mxGeometry>
                </mxCell>
                <mxCell id="46" value="&lt;font style=&quot;background-color: rgb(255, 255, 255);&quot; color=&quot;#000000&quot;&gt;&amp;lt;&amp;lt;extend&amp;gt;&amp;gt;&lt;/font&gt;" style="endArrow=open;endSize=12;dashed=1;html=1;rounded=0;strokeColor=#000000;exitX=0.618;exitY=1.011;exitDx=0;exitDy=0;exitPerimeter=0;entryX=0.324;entryY=0.04;entryDx=0;entryDy=0;entryPerimeter=0;" parent="1" source="36" target="38" edge="1">
                    <mxGeometry width="160" relative="1" as="geometry">
                        <mxPoint x="380" y="1780" as="sourcePoint"/>
                        <mxPoint x="496" y="1958" as="targetPoint"/>
                    </mxGeometry>
                </mxCell>
                <mxCell id="47" value="&lt;font style=&quot;background-color: rgb(255, 255, 255);&quot; color=&quot;#000000&quot;&gt;&amp;lt;&amp;lt;extend&amp;gt;&amp;gt;&lt;/font&gt;" style="endArrow=open;endSize=12;dashed=1;html=1;rounded=0;entryX=0;entryY=0;entryDx=0;entryDy=0;exitX=0.797;exitY=0.947;exitDx=0;exitDy=0;exitPerimeter=0;strokeColor=#000000;" parent="1" source="36" target="39" edge="1">
                    <mxGeometry width="160" relative="1" as="geometry">
                        <mxPoint x="470" y="1720" as="sourcePoint"/>
                        <mxPoint x="556" y="1768" as="targetPoint"/>
                        <Array as="points"/>
                    </mxGeometry>
                </mxCell>
                <mxCell id="48" value="&lt;font style=&quot;background-color: rgb(255, 255, 255);&quot; color=&quot;#000000&quot;&gt;&amp;lt;&amp;lt;extend&amp;gt;&amp;gt;&lt;/font&gt;" style="endArrow=open;endSize=12;dashed=1;html=1;rounded=0;entryX=0.328;entryY=-0.06;entryDx=0;entryDy=0;strokeColor=#000000;entryPerimeter=0;exitX=0;exitY=1;exitDx=0;exitDy=0;" parent="1" source="36" target="40" edge="1">
                    <mxGeometry width="160" relative="1" as="geometry">
                        <mxPoint x="455" y="1729" as="sourcePoint"/>
                        <mxPoint x="550" y="1820" as="targetPoint"/>
                    </mxGeometry>
                </mxCell>
                <mxCell id="49" value="" style="endArrow=block;endSize=16;endFill=0;html=1;rounded=0;entryX=1;entryY=0.5;entryDx=0;entryDy=0;exitX=0.035;exitY=0.641;exitDx=0;exitDy=0;exitPerimeter=0;strokeColor=#000000;" parent="1" source="33" target="32" edge="1">
                    <mxGeometry width="160" relative="1" as="geometry">
                        <mxPoint x="270" y="1390" as="sourcePoint"/>
                        <mxPoint x="430" y="1390" as="targetPoint"/>
                    </mxGeometry>
                </mxCell>
                <mxCell id="50" value="" style="endArrow=block;endSize=16;endFill=0;html=1;rounded=0;entryX=0.916;entryY=0.724;entryDx=0;entryDy=0;exitX=0;exitY=0.5;exitDx=0;exitDy=0;entryPerimeter=0;strokeColor=#000000;" parent="1" source="34" target="32" edge="1">
                    <mxGeometry width="160" relative="1" as="geometry">
                        <mxPoint x="494" y="1276" as="sourcePoint"/>
                        <mxPoint x="410" y="1320" as="targetPoint"/>
                    </mxGeometry>
                </mxCell>
                <mxCell id="51" value="" style="endArrow=block;endSize=16;endFill=0;html=1;rounded=0;entryX=0.4;entryY=1;entryDx=0;entryDy=0;exitX=0;exitY=0.5;exitDx=0;exitDy=0;entryPerimeter=0;strokeColor=#000000;" parent="1" source="35" target="32" edge="1">
                    <mxGeometry width="160" relative="1" as="geometry">
                        <mxPoint x="490" y="1340" as="sourcePoint"/>
                        <mxPoint x="397" y="1329" as="targetPoint"/>
                        <Array as="points">
                            <mxPoint x="310" y="1480"/>
                        </Array>
                    </mxGeometry>
                </mxCell>
                <mxCell id="53" value="" style="endArrow=none;html=1;rounded=0;entryX=0.337;entryY=0.932;entryDx=0;entryDy=0;entryPerimeter=0;strokeColor=#000000;exitX=0.5;exitY=0.5;exitDx=0;exitDy=0;exitPerimeter=0;" parent="1" source="4" target="9" edge="1">
                    <mxGeometry width="50" height="50" relative="1" as="geometry">
                        <mxPoint x="170" y="540" as="sourcePoint"/>
                        <mxPoint x="520" y="420" as="targetPoint"/>
                        <Array as="points">
                            <mxPoint x="150" y="490"/>
                        </Array>
                    </mxGeometry>
                </mxCell>
                <mxCell id="55" value="" style="endArrow=block;endSize=16;endFill=0;html=1;rounded=0;entryX=1;entryY=1;entryDx=0;entryDy=0;exitX=0.5;exitY=0;exitDx=0;exitDy=0;strokeColor=#000000;" parent="1" source="22" target="20" edge="1">
                    <mxGeometry width="160" relative="1" as="geometry">
                        <mxPoint x="669" y="746" as="sourcePoint"/>
                        <mxPoint x="585" y="790" as="targetPoint"/>
                    </mxGeometry>
                </mxCell>
                <mxCell id="56" value="" style="endArrow=block;endSize=16;endFill=0;html=1;rounded=0;exitX=0.5;exitY=0;exitDx=0;exitDy=0;strokeColor=#000000;entryX=1;entryY=0.5;entryDx=0;entryDy=0;" parent="1" source="23" edge="1" target="20">
                    <mxGeometry width="160" relative="1" as="geometry">
                        <mxPoint x="715" y="760" as="sourcePoint"/>
                        <mxPoint x="605" y="800" as="targetPoint"/>
                    </mxGeometry>
                </mxCell>
                <mxCell id="57" value="" style="endArrow=block;endSize=16;endFill=0;html=1;rounded=0;entryX=0.664;entryY=1.096;entryDx=0;entryDy=0;entryPerimeter=0;strokeColor=#000000;exitX=0.5;exitY=0;exitDx=0;exitDy=0;" parent="1" source="24" target="20" edge="1">
                    <mxGeometry width="160" relative="1" as="geometry">
                        <mxPoint x="705" y="850" as="sourcePoint"/>
                        <mxPoint x="615" y="810" as="targetPoint"/>
                    </mxGeometry>
                </mxCell>
                <mxCell id="64" value="&lt;font style=&quot;background-color: rgb(255, 255, 255);&quot; color=&quot;#000000&quot;&gt;&amp;lt;&amp;lt;extend&amp;gt;&amp;gt;&lt;/font&gt;" style="endArrow=open;endSize=12;dashed=1;html=1;rounded=0;strokeColor=#000000;" parent="1" source="41" target="33" edge="1">
                    <mxGeometry width="160" relative="1" as="geometry">
                        <mxPoint x="757" y="1310" as="sourcePoint"/>
                        <mxPoint x="605" y="1283" as="targetPoint"/>
                    </mxGeometry>
                </mxCell>
                <mxCell id="65" value="" style="endArrow=none;html=1;rounded=0;entryX=0;entryY=0.5;entryDx=0;entryDy=0;strokeColor=#000000;exitX=0.5;exitY=0.5;exitDx=0;exitDy=0;exitPerimeter=0;" parent="1" source="3" target="20" edge="1">
                    <mxGeometry width="50" height="50" relative="1" as="geometry">
                        <mxPoint x="160" y="840" as="sourcePoint"/>
                        <mxPoint x="210" y="790" as="targetPoint"/>
                    </mxGeometry>
                </mxCell>
                <mxCell id="67" value="" style="endArrow=none;html=1;rounded=0;entryX=0;entryY=0.5;entryDx=0;entryDy=0;strokeColor=#000000;exitX=0.5;exitY=0.5;exitDx=0;exitDy=0;exitPerimeter=0;" parent="1" source="4" target="17" edge="1">
                    <mxGeometry width="50" height="50" relative="1" as="geometry">
                        <mxPoint x="170" y="540" as="sourcePoint"/>
                        <mxPoint x="230" y="550" as="targetPoint"/>
                    </mxGeometry>
                </mxCell>
                <mxCell id="68" value="" style="endArrow=none;html=1;rounded=0;strokeColor=#000000;exitX=0.5;exitY=0.5;exitDx=0;exitDy=0;exitPerimeter=0;" parent="1" source="4" target="18" edge="1">
                    <mxGeometry width="50" height="50" relative="1" as="geometry">
                        <mxPoint x="170" y="540" as="sourcePoint"/>
                        <mxPoint x="320" y="518" as="targetPoint"/>
                    </mxGeometry>
                </mxCell>
                <mxCell id="69" value="" style="endArrow=none;html=1;rounded=0;entryX=0;entryY=0.5;entryDx=0;entryDy=0;strokeColor=#000000;exitX=0.5;exitY=0.5;exitDx=0;exitDy=0;exitPerimeter=0;" parent="1" source="4" target="19" edge="1">
                    <mxGeometry width="50" height="50" relative="1" as="geometry">
                        <mxPoint x="170" y="540" as="sourcePoint"/>
                        <mxPoint x="328" y="584" as="targetPoint"/>
                    </mxGeometry>
                </mxCell>
                <mxCell id="70" value="&lt;font color=&quot;#000000&quot;&gt;se Connecter&lt;/font&gt;" style="ellipse;whiteSpace=wrap;html=1;strokeColor=#d6b656;fillColor=#fff2cc;gradientColor=#ffd966;" parent="1" vertex="1">
                    <mxGeometry x="1700" y="640" width="220" height="40" as="geometry"/>
                </mxCell>
                <mxCell id="72" value="&lt;font style=&quot;background-color: rgb(255, 255, 255);&quot; color=&quot;#000000&quot;&gt;&amp;lt;&amp;lt;include&amp;gt;&amp;gt;&lt;/font&gt;" style="endArrow=open;endSize=12;dashed=1;html=1;rounded=0;exitX=1;exitY=0;exitDx=0;exitDy=0;strokeColor=#000000;entryX=0;entryY=0.5;entryDx=0;entryDy=0;" parent="1" source="17" target="70" edge="1">
                    <mxGeometry width="160" relative="1" as="geometry">
                        <mxPoint x="700" y="432.5" as="sourcePoint"/>
                        <mxPoint x="1700" y="650" as="targetPoint"/>
                        <Array as="points">
                            <mxPoint x="1700" y="420"/>
                        </Array>
                    </mxGeometry>
                </mxCell>
                <mxCell id="73" value="&lt;font style=&quot;background-color: rgb(255, 255, 255);&quot; color=&quot;#000000&quot;&gt;&amp;lt;&amp;lt;include&amp;gt;&amp;gt;&lt;/font&gt;" style="endArrow=open;endSize=12;dashed=1;html=1;rounded=0;strokeColor=#000000;" parent="1" source="18" edge="1">
                    <mxGeometry width="160" relative="1" as="geometry">
                        <mxPoint x="412" y="496" as="sourcePoint"/>
                        <mxPoint x="1732" y="640" as="targetPoint"/>
                        <Array as="points">
                            <mxPoint x="1732" y="480"/>
                        </Array>
                    </mxGeometry>
                </mxCell>
                <mxCell id="74" value="&lt;font style=&quot;background-color: rgb(255, 255, 255);&quot; color=&quot;#000000&quot;&gt;&amp;lt;&amp;lt;include&amp;gt;&amp;gt;&lt;/font&gt;" style="endArrow=open;endSize=12;dashed=1;html=1;rounded=0;exitX=1;exitY=0.5;exitDx=0;exitDy=0;strokeColor=#000000;" parent="1" source="19" edge="1">
                    <mxGeometry width="160" relative="1" as="geometry">
                        <mxPoint x="498" y="569" as="sourcePoint"/>
                        <mxPoint x="1760" y="640" as="targetPoint"/>
                        <Array as="points">
                            <mxPoint x="1759" y="540"/>
                        </Array>
                    </mxGeometry>
                </mxCell>
                <mxCell id="75" value="&lt;font style=&quot;background-color: rgb(255, 255, 255);&quot; color=&quot;#000000&quot;&gt;&amp;lt;&amp;lt;include&amp;gt;&amp;gt;&lt;/font&gt;" style="endArrow=open;endSize=12;dashed=1;html=1;rounded=0;entryX=0.465;entryY=1.06;entryDx=0;entryDy=0;exitX=0.985;exitY=0.264;exitDx=0;exitDy=0;entryPerimeter=0;strokeColor=#000000;exitPerimeter=0;" parent="1" source="20" target="70" edge="1">
                    <mxGeometry width="160" relative="1" as="geometry">
                        <mxPoint x="430" y="640" as="sourcePoint"/>
                        <mxPoint x="1189" y="460" as="targetPoint"/>
                    </mxGeometry>
                </mxCell>
                <mxCell id="77" value="&lt;font style=&quot;background-color: rgb(255, 255, 255);&quot; color=&quot;#000000&quot;&gt;&amp;lt;&amp;lt;include&amp;gt;&amp;gt;&lt;/font&gt;" style="endArrow=open;endSize=12;dashed=1;html=1;rounded=0;entryX=1;entryY=1;entryDx=0;entryDy=0;strokeColor=#000000;" parent="1" source="32" target="70" edge="1">
                    <mxGeometry width="160" relative="1" as="geometry">
                        <mxPoint x="372" y="1206" as="sourcePoint"/>
                        <mxPoint x="1297" y="458" as="targetPoint"/>
                        <Array as="points">
                            <mxPoint x="1110" y="970"/>
                        </Array>
                    </mxGeometry>
                </mxCell>
                <mxCell id="78" value="&lt;span style=&quot;background-color: rgb(255, 255, 255);&quot;&gt;&lt;font color=&quot;#000000&quot;&gt;&amp;lt;&amp;lt;include&amp;gt;&amp;gt;&lt;/font&gt;&lt;/span&gt;" style="endArrow=open;endSize=12;dashed=1;html=1;rounded=0;entryX=0.915;entryY=0.727;entryDx=0;entryDy=0;entryPerimeter=0;exitX=1;exitY=0.5;exitDx=0;exitDy=0;strokeColor=#000000;" parent="1" source="36" target="70" edge="1">
                    <mxGeometry width="160" relative="1" as="geometry">
                        <mxPoint x="440" y="1740.9292763157894" as="sourcePoint"/>
                        <mxPoint x="1324" y="631" as="targetPoint"/>
                        <Array as="points">
                            <mxPoint x="1901" y="1770"/>
                        </Array>
                    </mxGeometry>
                </mxCell>
                <mxCell id="80" value="&lt;div style=&quot;text-align: left;&quot;&gt;&lt;span style=&quot;color: light-dark(rgb(0, 0, 0), rgb(255, 255, 255)); font-size: 14px; background-color: rgb(255, 255, 255);&quot;&gt;&lt;font face=&quot;Nunito Sans, sans-serif&quot;&gt;Ajouter Categories&lt;/font&gt;&lt;/span&gt;&lt;/div&gt;" style="ellipse;whiteSpace=wrap;html=1;strokeColor=#000000;fillColor=#FFFFFF;" parent="1" vertex="1">
                    <mxGeometry x="1160" y="1400" width="140" height="40" as="geometry"/>
                </mxCell>
                <mxCell id="81" value="&lt;div style=&quot;text-align: left;&quot;&gt;&lt;span style=&quot;color: light-dark(rgb(0, 0, 0), rgb(255, 255, 255)); font-size: 14px; background-color: rgb(255, 255, 255);&quot;&gt;&lt;font face=&quot;Nunito Sans, sans-serif&quot;&gt;Modifier Categories&lt;/font&gt;&lt;/span&gt;&lt;/div&gt;" style="ellipse;whiteSpace=wrap;html=1;strokeColor=#000000;fillColor=#FFFFFF;" parent="1" vertex="1">
                    <mxGeometry x="1160" y="1470" width="140" height="40" as="geometry"/>
                </mxCell>
                <mxCell id="82" value="&lt;div style=&quot;text-align: left;&quot;&gt;&lt;span style=&quot;color: light-dark(rgb(0, 0, 0), rgb(255, 255, 255)); font-size: 14px; background-color: rgb(255, 255, 255);&quot;&gt;&lt;font face=&quot;Nunito Sans, sans-serif&quot;&gt;Supprimer Categories&lt;/font&gt;&lt;/span&gt;&lt;/div&gt;" style="ellipse;whiteSpace=wrap;html=1;strokeColor=#000000;fillColor=#FFFFFF;" parent="1" vertex="1">
                    <mxGeometry x="1162.5" y="1550" width="145" height="40" as="geometry"/>
                </mxCell>
                <mxCell id="83" value="&lt;font style=&quot;background-color: rgb(255, 255, 255);&quot; color=&quot;#000000&quot;&gt;&amp;lt;&amp;lt;extend&amp;gt;&amp;gt;&lt;/font&gt;" style="endArrow=open;endSize=12;dashed=1;html=1;rounded=0;entryX=1;entryY=0.5;entryDx=0;entryDy=0;strokeColor=#000000;exitX=0;exitY=0.5;exitDx=0;exitDy=0;" parent="1" target="34" edge="1" source="80">
                    <mxGeometry width="160" relative="1" as="geometry">
                        <mxPoint x="620" y="1350" as="sourcePoint"/>
                        <mxPoint x="605" y="1278" as="targetPoint"/>
                    </mxGeometry>
                </mxCell>
                <mxCell id="84" value="&lt;font style=&quot;background-color: rgb(255, 255, 255);&quot; color=&quot;#000000&quot;&gt;&amp;lt;&amp;lt;extend&amp;gt;&amp;gt;&lt;/font&gt;" style="endArrow=open;endSize=12;dashed=1;html=1;rounded=0;exitX=0.5;exitY=0;exitDx=0;exitDy=0;strokeColor=#000000;entryX=1;entryY=1;entryDx=0;entryDy=0;" parent="1" source="81" target="34" edge="1">
                    <mxGeometry width="160" relative="1" as="geometry">
                        <mxPoint x="630" y="1360" as="sourcePoint"/>
                        <mxPoint x="550" y="1390" as="targetPoint"/>
                    </mxGeometry>
                </mxCell>
                <mxCell id="85" value="&lt;font style=&quot;background-color: rgb(255, 255, 255);&quot; color=&quot;#000000&quot;&gt;&amp;lt;&amp;lt;extend&amp;gt;&amp;gt;&lt;/font&gt;" style="endArrow=open;endSize=12;dashed=1;html=1;rounded=0;exitX=0.5;exitY=0;exitDx=0;exitDy=0;entryX=0;entryY=1;entryDx=0;entryDy=0;strokeColor=#000000;" parent="1" source="82" target="34" edge="1">
                    <mxGeometry width="160" relative="1" as="geometry">
                        <mxPoint x="674" y="1423" as="sourcePoint"/>
                        <mxPoint x="560" y="1400" as="targetPoint"/>
                    </mxGeometry>
                </mxCell>
                <mxCell id="86" value="&lt;div style=&quot;text-align: left;&quot;&gt;&lt;span style=&quot;color: light-dark(rgb(0, 0, 0), rgb(255, 255, 255)); font-size: 14px; background-color: rgb(255, 255, 255);&quot;&gt;&lt;font face=&quot;Nunito Sans, sans-serif&quot;&gt;Ajouter Tags&lt;/font&gt;&lt;/span&gt;&lt;/div&gt;" style="ellipse;whiteSpace=wrap;html=1;strokeColor=#000000;fillColor=#FFFFFF;" parent="1" vertex="1">
                    <mxGeometry x="680" y="1470" width="140" height="40" as="geometry"/>
                </mxCell>
                <mxCell id="87" value="&lt;div style=&quot;text-align: left;&quot;&gt;&lt;span style=&quot;color: light-dark(rgb(0, 0, 0), rgb(255, 255, 255)); font-size: 14px; background-color: rgb(255, 255, 255);&quot;&gt;&lt;font face=&quot;Nunito Sans, sans-serif&quot;&gt;Modifier Tags&lt;/font&gt;&lt;/span&gt;&lt;/div&gt;" style="ellipse;whiteSpace=wrap;html=1;strokeColor=#000000;fillColor=#FFFFFF;" parent="1" vertex="1">
                    <mxGeometry x="685" y="1540" width="140" height="40" as="geometry"/>
                </mxCell>
                <mxCell id="88" value="&lt;div style=&quot;text-align: left;&quot;&gt;&lt;span style=&quot;color: light-dark(rgb(0, 0, 0), rgb(255, 255, 255)); font-size: 14px; background-color: rgb(255, 255, 255);&quot;&gt;&lt;font face=&quot;Nunito Sans, sans-serif&quot;&gt;Supprimer Tags&lt;/font&gt;&lt;/span&gt;&lt;/div&gt;" style="ellipse;whiteSpace=wrap;html=1;strokeColor=#000000;fillColor=#FFFFFF;" parent="1" vertex="1">
                    <mxGeometry x="685" y="1610" width="140" height="40" as="geometry"/>
                </mxCell>
                <mxCell id="89" value="&lt;font style=&quot;background-color: rgb(255, 255, 255);&quot; color=&quot;#000000&quot;&gt;&amp;lt;&amp;lt;extend&amp;gt;&amp;gt;&lt;/font&gt;" style="endArrow=open;endSize=12;dashed=1;html=1;rounded=0;strokeColor=#000000;entryX=1;entryY=0.5;entryDx=0;entryDy=0;" parent="1" source="86" edge="1" target="35">
                    <mxGeometry width="160" relative="1" as="geometry">
                        <mxPoint x="621" y="1452" as="sourcePoint"/>
                        <mxPoint x="470" y="1500" as="targetPoint"/>
                    </mxGeometry>
                </mxCell>
                <mxCell id="90" value="&lt;font style=&quot;background-color: rgb(255, 255, 255);&quot; color=&quot;#000000&quot;&gt;&amp;lt;&amp;lt;extend&amp;gt;&amp;gt;&lt;/font&gt;" style="endArrow=open;endSize=12;dashed=1;html=1;rounded=0;exitX=0.5;exitY=0;exitDx=0;exitDy=0;strokeColor=#000000;" parent="1" source="87" target="35" edge="1">
                    <mxGeometry width="160" relative="1" as="geometry">
                        <mxPoint x="560" y="1510" as="sourcePoint"/>
                        <mxPoint x="480" y="1510" as="targetPoint"/>
                    </mxGeometry>
                </mxCell>
                <mxCell id="91" value="&lt;font style=&quot;background-color: rgb(255, 255, 255);&quot; color=&quot;#000000&quot;&gt;&amp;lt;&amp;lt;extend&amp;gt;&amp;gt;&lt;/font&gt;" style="endArrow=open;endSize=12;dashed=1;html=1;rounded=0;exitX=0.5;exitY=0;exitDx=0;exitDy=0;entryX=0;entryY=1;entryDx=0;entryDy=0;strokeColor=#000000;" parent="1" source="88" target="35" edge="1">
                    <mxGeometry width="160" relative="1" as="geometry">
                        <mxPoint x="520" y="1560" as="sourcePoint"/>
                        <mxPoint x="466" y="1536" as="targetPoint"/>
                    </mxGeometry>
                </mxCell>
                <mxCell id="92" value="&lt;font color=&quot;#000000&quot;&gt;Valider Compte ensignant&lt;/font&gt;" style="ellipse;whiteSpace=wrap;html=1;strokeColor=#000000;fillColor=#FFFFFF;" parent="1" vertex="1">
                    <mxGeometry x="570" y="960" width="120" height="40" as="geometry"/>
                </mxCell>
                <mxCell id="93" value="&lt;font color=&quot;#000000&quot;&gt;Refuser Compte Enseignat&lt;/font&gt;" style="ellipse;whiteSpace=wrap;html=1;strokeColor=#000000;fillColor=#FFFFFF;" parent="1" vertex="1">
                    <mxGeometry x="620" y="1030" width="120" height="40" as="geometry"/>
                </mxCell>
                <mxCell id="94" value="" style="endArrow=block;endSize=16;endFill=0;html=1;rounded=0;entryX=0.361;entryY=0.042;entryDx=0;entryDy=0;exitX=0.5;exitY=1;exitDx=0;exitDy=0;entryPerimeter=0;strokeColor=#000000;" parent="1" source="92" target="31" edge="1">
                    <mxGeometry width="160" relative="1" as="geometry">
                        <mxPoint x="460" y="1116" as="sourcePoint"/>
                        <mxPoint x="376" y="1160" as="targetPoint"/>
                        <Array as="points"/>
                    </mxGeometry>
                </mxCell>
                <mxCell id="95" value="" style="endArrow=block;endSize=16;endFill=0;html=1;rounded=0;entryX=1;entryY=0;entryDx=0;entryDy=0;exitX=0.5;exitY=1;exitDx=0;exitDy=0;strokeColor=#000000;" parent="1" source="93" target="31" edge="1">
                    <mxGeometry width="160" relative="1" as="geometry">
                        <mxPoint x="480" y="1120" as="sourcePoint"/>
                        <mxPoint x="380" y="1172" as="targetPoint"/>
                    </mxGeometry>
                </mxCell>
                <mxCell id="96" value="&lt;font color=&quot;#000000&quot;&gt;Consulter&amp;nbsp; Cours&lt;/font&gt;" style="ellipse;whiteSpace=wrap;html=1;fillColor=#FFFFFF;strokeColor=#000000;" parent="1" vertex="1">
                    <mxGeometry x="565" y="840" width="120" height="40" as="geometry"/>
                </mxCell>
                <mxCell id="97" value="" style="endArrow=block;endSize=16;endFill=0;html=1;rounded=0;entryX=0.5;entryY=1;entryDx=0;entryDy=0;strokeColor=#000000;exitX=0.5;exitY=0;exitDx=0;exitDy=0;" parent="1" source="96" target="20" edge="1">
                    <mxGeometry width="160" relative="1" as="geometry">
                        <mxPoint x="715" y="860" as="sourcePoint"/>
                        <mxPoint x="584.52" y="827.6399999999999" as="targetPoint"/>
                    </mxGeometry>
                </mxCell>
                <mxCell id="98" value="" style="endArrow=block;endSize=16;endFill=0;html=1;rounded=0;entryX=0;entryY=1;entryDx=0;entryDy=0;strokeColor=#000000;" parent="1" source="21" target="20" edge="1">
                    <mxGeometry width="160" relative="1" as="geometry">
                        <mxPoint x="705" y="920" as="sourcePoint"/>
                        <mxPoint x="555" y="830" as="targetPoint"/>
                    </mxGeometry>
                </mxCell>
            </root>
        </mxGraphModel>
    </diagram>
</mxfile>